<svg id="Layer_1" data-name="Layer 1" xmlns="http://www.w3.org/2000/svg" viewBox="0 0 15.07 14.13"><defs><style>.cls-1,.cls-2{fill:none;stroke:#3aafa9;stroke-miterlimit:10;}.cls-2{stroke-linecap:round;}</style></defs><line class="cls-1" x1="4.26" y1="10.11" x2="4.26" y2="10.1"/><path class="cls-2" d="M2.29,4.35a5.31,5.31,0,1,1,8.62,5.44"/><path class="cls-1" d="M7.54,13.34h0a5.23,5.23,0,0,1-1.73.29A5.31,5.31,0,0,1,2.29,4.35,5.23,5.23,0,0,1,5.81,3a5.12,5.12,0,0,1,1.71.29h0"/><path class="cls-2" d="M12.39,4a5.32,5.32,0,0,1-3.12,9.61,5.19,5.19,0,0,1-1.73-.29h0a5.33,5.33,0,0,1-3.28-3.23h0"/><path class="cls-2" d="M7.53,3.3h0"/></svg>