<svg id="Layer_1" data-name="Layer 1" xmlns="http://www.w3.org/2000/svg" viewBox="0 0 34.01 36.62"><defs><style>.cls-1{fill:#8ad2d8;}</style></defs><path class="cls-1" d="M34,18.7A17.66,17.66,0,0,1,0,24.3a.46.46,0,0,1,.67-.56A14.46,14.46,0,0,0,18.17.8a.46.46,0,0,1,.36-.8A17.67,17.67,0,0,1,34,18.7Z"/><path class="cls-1" d="M29.37,36.13l.84-1.67a.17.17,0,0,0,0-.2L28.84,33l1.85.28a.17.17,0,0,0,.18-.09l.84-1.67.3,1.84a.18.18,0,0,0,.15.14l1.85.28-1.67.86a.19.19,0,0,0-.09.18l.31,1.85L31.23,35.3a.18.18,0,0,0-.2,0Z"/><path class="cls-1" d="M11.44,22.26l.84-1.67a.18.18,0,0,0,0-.2l-1.34-1.32,1.85.29a.17.17,0,0,0,.18-.1l.84-1.67.3,1.85a.18.18,0,0,0,.15.14l1.85.28-1.67.86a.16.16,0,0,0-.08.18l.3,1.84L13.3,21.43a.17.17,0,0,0-.2,0Z"/><path class="cls-1" d="M15.82,9.69,16.65,8a.17.17,0,0,0,0-.2L15.29,6.51l1.85.28a.18.18,0,0,0,.18-.09L18.16,5l.3,1.84A.16.16,0,0,0,18.6,7l1.85.28-1.66.86a.19.19,0,0,0-.09.18L19,10.18,17.67,8.86a.17.17,0,0,0-.19,0Z"/></svg>