<?xml version="1.0" encoding="utf-8"?>
<!-- Generator: Adobe Illustrator 26.4.1, SVG Export Plug-In . SVG Version: 6.00 Build 0)  -->
<svg version="1.1" id="Layer_1" xmlns="http://www.w3.org/2000/svg" xmlns:xlink="http://www.w3.org/1999/xlink" x="0px" y="0px"
	 viewBox="0 0 13.1 13.1" style="enable-background:new 0 0 13.1 13.1;" xml:space="preserve">
<style type="text/css">
	.st0{fill:#3AAFA9;}
</style>
<path class="st0" d="M11.9,4.6H8.5V1.2C8.5,0.5,8,0,7.3,0H5.7C5.1,0,4.6,0.5,4.6,1.2v3.4H1.2C0.5,4.6,0,5.1,0,5.7v1.6
	C0,8,0.5,8.5,1.2,8.5h3.4v3.4c0,0.6,0.5,1.2,1.2,1.2h1.6c0.6,0,1.2-0.5,1.2-1.2V8.5h3.4c0.6,0,1.2-0.5,1.2-1.2V5.7
	C13.1,5.1,12.5,4.6,11.9,4.6z"/>
</svg>
