<svg id="Layer_1" data-name="Layer 1" xmlns="http://www.w3.org/2000/svg" viewBox="0 0 73.53 73.53"><defs><style>.cls-1{fill:#8ad2d8;}</style></defs><path class="cls-1" d="M38.25,6.75h-1.9a1,1,0,0,1-1-1.43l1.14-2.81L37.29.64a1,1,0,0,1,1.92,0L40,2.51,41.1,5.32a1,1,0,0,1-1,1.43Z"/><path class="cls-1" d="M53.06,11.51l-1.64-.95a1,1,0,0,1-.12-1.71L53.69,7l1.59-1.24a1,1,0,0,1,1.66,1l-.28,2-.42,3a1,1,0,0,1-1.54.75Z"/><path class="cls-1" d="M63.5,23l-.94-1.64a1,1,0,0,1,.75-1.54l3-.42,2-.28a1,1,0,0,1,1,1.66L68,22.41,66.16,24.8a1,1,0,0,1-1.71-.12Z"/><path class="cls-1" d="M66.78,38.25v-1.9a1,1,0,0,1,1.42-1L71,36.54l1.87.75a1,1,0,0,1,0,1.92L71,40,68.2,41.1a1,1,0,0,1-1.42-1Z"/><path class="cls-1" d="M62,53.06,63,51.42a1,1,0,0,1,1.71-.12l1.87,2.39,1.24,1.59a1,1,0,0,1-1,1.66l-2-.28-3-.42a1,1,0,0,1-.75-1.54Z"/><path class="cls-1" d="M50.48,63.5l1.65-.94a1,1,0,0,1,1.53.75l.42,3,.28,2a1,1,0,0,1-1.66,1L51.12,68l-2.4-1.86a1,1,0,0,1,.12-1.71Z"/><path class="cls-1" d="M35.28,66.78h1.89a1,1,0,0,1,1,1.42L37,71l-.76,1.87a1,1,0,0,1-1.91,0L33.56,71,32.42,68.2a1,1,0,0,1,1-1.42Z"/><path class="cls-1" d="M20.47,62l1.64.94a1,1,0,0,1,.12,1.71l-2.4,1.87-1.59,1.24a1,1,0,0,1-1.65-1l.28-2,.42-3a1,1,0,0,1,1.53-.75Z"/><path class="cls-1" d="M10,50.48l1,1.65a1,1,0,0,1-.75,1.53l-3,.42-2,.28a1,1,0,0,1-1-1.66L5.5,51.12l1.87-2.4a1,1,0,0,1,1.71.12Z"/><path class="cls-1" d="M6.75,35.28v1.89a1,1,0,0,1-1.43,1L2.51,37,.64,36.23a1,1,0,0,1,0-1.91l1.87-.76,2.81-1.14a1,1,0,0,1,1.43,1Z"/><path class="cls-1" d="M11.51,20.47l-.95,1.64a1,1,0,0,1-1.71.12L7,19.83,5.75,18.24a1,1,0,0,1,1-1.65l2,.28,3,.42a1,1,0,0,1,.75,1.53Z"/><path class="cls-1" d="M23,10,21.4,11a1,1,0,0,1-1.54-.75l-.42-3-.28-2a1,1,0,0,1,1.66-1L22.41,5.5,24.8,7.37a1,1,0,0,1-.12,1.71Z"/><path class="cls-1" d="M38.25,6.75h-1.9a1,1,0,0,1-1-1.43l1.14-2.81L37.29.64a1,1,0,0,1,1.92,0L40,2.51,41.1,5.32a1,1,0,0,1-1,1.43Z"/><circle class="cls-1" cx="36.76" cy="36.76" r="28.27"/></svg>